# xmcd
#
# Track frame offsets: 
#        150
#        24534
#        44110
#        67222
#        88005
#        110061
#        128829
#        149016
#        172502
#        199621
#        218288
#        241333
#        258021
#        282060
#        301937
#        325421
#
# Disc length: 4796 seconds
#
# Revision: 0
# Processed by: cddbd v1.5.2PL0 Copyright (c) Steve Scherf et al.
# Submitted via: ExactAudioCopyFreeDBPlugin 1.0
#
DISCID=e512ba10
DTITLE=Phuong Thanh - Dinh menh la the
DYEAR=1900
DGENRE=
TTITLE0=Trai ngang
TTITLE1=Ve so
TTITLE2=Tinh tuyet vong
TTITLE3=Trai dat chi con chung ta
TTITLE4=Tra lai anh tinh dau
TTITLE5=Dinh menh la the
TTITLE6=Se khong tro lai
TTITLE7=Noi long
TTITLE8=Sau tim thiep hong
TTITLE9=Nguoi di ngoai pho
TTITLE10=Bac trang lua hong
TTITLE11=Cay cau dua
TTITLE12=Giot le dai trang
TTITLE13=Mat nhau roi
TTITLE14=Nho nguoi yeu
TTITLE15=Lan va diep
EXTD=
EXTT0=
EXTT1=
EXTT2=
EXTT3=
EXTT4=
EXTT5=
EXTT6=
EXTT7=
EXTT8=
EXTT9=
EXTT10=
EXTT11=
EXTT12=
EXTT13=
EXTT14=
EXTT15=
PLAYORDER=
